<?xml version="1.0" encoding="utf-8"?>
<!-- Generator: Adobe Illustrator 24.0.0, SVG Export Plug-In . SVG Version: 6.00 Build 0)  -->
<svg version="1.1" baseProfile="basic" id="Layer_1"
	 xmlns="http://www.w3.org/2000/svg" xmlns:xlink="http://www.w3.org/1999/xlink" x="0px" y="0px" viewBox="0 0 136.75 156.28"
	 xml:space="preserve">
<style type="text/css">
	.st0{fill:#CC212A;}
	.st1{fill:#DA8367;}
	.st2{fill:#EABDA6;}
	.st3{fill:#9FC54C;}
	.st4{fill:#C2D88E;}
	.st5{fill:#DDE9C2;}
	.st6{fill:#EEBF2F;}
	.st7{fill:#F5D781;}
	.st8{fill:#F9E7BC;}
	.st9{fill:#1EA69B;}
	.st10{fill:#84C2BD;}
	.st11{fill:#BFDEDB;}
	.st12{fill:#25AAE2;}
	.st13{fill:#80C5ED;}
	.st14{fill:#BDE0F6;}
	.st15{fill:#7D2C8A;}
	.st16{fill:#A479B1;}
	.st17{fill:#C9B4D4;}
	.st18{fill:#2D55A3;}
	.st19{fill:#7584BF;}
	.st20{fill:#B0B5DC;}
	.st21{fill:#CB1B71;}
	.st22{fill:#DA859D;}
	.st23{fill:#EABFC7;}
</style>
<g>
	<g>
		<path class="st0" d="M84.73,70.65h50.15c-0.67,46.28-38.36,83.75-84.72,84.05v-50.15C68.87,104.26,84.08,89.28,84.73,70.65z"/>
		<path class="st0" d="M56.31,40.18V1.42c36.18,0.48,65.65,29.27,67.19,65.19l-38.84,0C83.2,52.08,71.11,40.64,56.31,40.18z"/>
		<path class="st0" d="M38.1,46.55c-3.77,3.77-6.02,8.65-6.46,13.9H1.78c0.47-13.22,5.83-25.58,15.24-34.98
			c9.47-9.46,21.92-14.83,35.23-15.24v29.85C46.91,40.46,41.93,42.72,38.1,46.55z"/>
		<path class="st0" d="M46.11,76.83v21.96C26.85,98.63,11.09,83.53,9.79,64.51h22.08C33.05,71.4,38.96,76.68,46.11,76.83z"/>
		<path class="st0" d="M56.82,70.65h11.14c-0.47,4.41-2.42,8.5-5.61,11.68c-3.31,3.29-7.59,5.25-12.19,5.62V76.9
			c1.65-0.31,3.22-1.13,4.45-2.35C55.71,73.46,56.45,72.11,56.82,70.65z"/>
		<path class="st0" d="M50.97,61.96c-0.31-0.01-0.62,0.02-0.93,0.07v-7.87c0.31-0.02,0.62-0.05,0.93-0.05
			c3.71,0,7.22,1.46,9.85,4.09c2.28,2.29,3.67,5.23,3.99,8.41h-7.95c-0.26-1.07-0.81-2.07-1.61-2.87
			C54.11,62.59,52.58,61.96,50.97,61.96z"/>
	</g>
</g>
</svg>
