<?xml version="1.0" encoding="utf-8"?>
<!-- Generator: Adobe Illustrator 24.0.0, SVG Export Plug-In . SVG Version: 6.00 Build 0)  -->
<svg version="1.1" baseProfile="basic" id="Layer_1"
	 xmlns="http://www.w3.org/2000/svg" xmlns:xlink="http://www.w3.org/1999/xlink" x="0px" y="0px" viewBox="0 0 410.23 221.58"
	 xml:space="preserve">
<style type="text/css">
	.st0{fill:#CC212A;}
	.st1{fill:#DA8367;}
	.st2{fill:#EABDA6;}
	.st3{fill:#9FC54C;}
	.st4{fill:#C2D88E;}
	.st5{fill:#DDE9C2;}
	.st6{fill:#EEBF2F;}
	.st7{fill:#F5D781;}
	.st8{fill:#F9E7BC;}
	.st9{fill:#1EA69B;}
	.st10{fill:#84C2BD;}
	.st11{fill:#BFDEDB;}
	.st12{fill:#25AAE2;}
	.st13{fill:#80C5ED;}
	.st14{fill:#BDE0F6;}
	.st15{fill:#7D2C8A;}
	.st16{fill:#A479B1;}
	.st17{fill:#C9B4D4;}
	.st18{fill:#2D55A3;}
	.st19{fill:#7584BF;}
	.st20{fill:#B0B5DC;}
	.st21{fill:#CB1B71;}
	.st22{fill:#DA859D;}
	.st23{fill:#EABFC7;}
</style>
<g>
	<g>
		<path class="st0" d="M358.27,70.38h50.15c-0.67,46.28-38.36,83.75-84.72,84.05v-50.15C342.41,103.99,357.61,89,358.27,70.38z"/>
		<path class="st0" d="M329.84,39.9V1.14c36.18,0.48,65.65,29.27,67.19,65.19l-38.84,0C356.74,51.8,344.65,40.36,329.84,39.9z"/>
		<path class="st0" d="M311.63,46.28c-3.77,3.77-6.02,8.65-6.46,13.9h-29.86c0.47-13.22,5.83-25.58,15.24-34.98
			c9.47-9.46,21.92-14.83,35.23-15.24V39.8C320.44,40.18,315.46,42.44,311.63,46.28z"/>
		<path class="st0" d="M319.64,76.55v21.96c-19.26-0.16-35.02-15.26-36.32-34.28h22.08C306.59,71.12,312.5,76.4,319.64,76.55z"/>
		<path class="st0" d="M330.36,70.38h11.14c-0.47,4.41-2.42,8.5-5.61,11.68c-3.31,3.29-7.59,5.25-12.19,5.62V76.62
			c1.65-0.31,3.22-1.13,4.45-2.35C329.24,73.18,329.99,71.84,330.36,70.38z"/>
		<path class="st0" d="M324.5,61.68c-0.31-0.01-0.62,0.02-0.93,0.07v-7.87c0.31-0.02,0.62-0.05,0.93-0.05
			c3.71,0,7.22,1.46,9.85,4.09c2.28,2.29,3.67,5.23,3.99,8.41h-7.95c-0.26-1.07-0.81-2.07-1.61-2.87
			C327.65,62.31,326.12,61.68,324.5,61.68z"/>
	</g>
	<g>
		<path d="M91.73,207.53c-2.63,4.41-6.07,7.59-10.33,9.54c-4.26,1.94-9.07,2.92-14.43,2.92c-6.1,0-11.46-1.18-16.08-3.55
			c-4.63-2.36-8.44-5.57-11.43-9.62c-2.99-4.04-5.26-8.7-6.78-13.95c-1.53-5.25-2.29-10.72-2.29-16.4c0-5.46,0.76-10.75,2.29-15.84
			c1.52-5.1,3.78-9.59,6.78-13.48c3-3.89,6.75-7.02,11.27-9.38c4.52-2.37,9.78-3.55,15.77-3.55c4.83,0,9.43,1.02,13.8,3.07
			c4.36,2.05,7.8,5.07,10.33,9.07h0.32v-28.88h22.39v100.45H92.04v-10.41H91.73z M90.78,167.25c-0.63-3.1-1.71-5.83-3.23-8.2
			c-1.53-2.37-3.5-4.28-5.91-5.75c-2.42-1.47-5.47-2.21-9.14-2.21c-3.68,0-6.78,0.74-9.3,2.21c-2.52,1.47-4.55,3.42-6.07,5.83
			c-1.53,2.42-2.63,5.18-3.31,8.28c-0.69,3.1-1.02,6.33-1.02,9.7c0,3.15,0.37,6.31,1.1,9.46c0.73,3.15,1.92,5.97,3.55,8.44
			c1.63,2.47,3.68,4.47,6.15,5.99c2.47,1.53,5.44,2.29,8.91,2.29c3.68,0,6.75-0.73,9.22-2.21c2.47-1.47,4.44-3.44,5.91-5.91
			c1.47-2.47,2.52-5.28,3.15-8.43c0.63-3.15,0.95-6.41,0.95-9.78C91.73,173.58,91.41,170.35,90.78,167.25z"/>
		<path d="M147.49,198.38c3.36,3.26,8.2,4.89,14.51,4.89c4.52,0,8.41-1.13,11.67-3.39c3.26-2.26,5.25-4.65,5.99-7.17h19.71
			c-3.15,9.77-7.99,16.77-14.51,20.97c-6.52,4.21-14.4,6.31-23.65,6.31c-6.41,0-12.19-1.02-17.34-3.07
			c-5.15-2.05-9.51-4.97-13.09-8.75c-3.57-3.78-6.33-8.3-8.28-13.56c-1.95-5.25-2.92-11.04-2.92-17.34c0-6.09,1-11.77,3-17.03
			c1.99-5.25,4.83-9.8,8.51-13.64c3.68-3.84,8.07-6.86,13.16-9.07c5.1-2.21,10.75-3.31,16.95-3.31c6.94,0,12.98,1.34,18.13,4.02
			c5.15,2.68,9.38,6.28,12.69,10.8c3.31,4.52,5.7,9.67,7.17,15.45c1.47,5.78,1.99,11.82,1.58,18.13h-58.81
			C142.28,189.87,144.12,195.13,147.49,198.38z M172.79,155.5c-2.68-2.94-6.75-4.41-12.22-4.41c-3.57,0-6.54,0.61-8.91,1.81
			c-2.36,1.21-4.26,2.71-5.67,4.49c-1.42,1.79-2.42,3.68-3,5.68c-0.58,2-0.92,3.78-1.02,5.36h36.42
			C177.34,162.75,175.47,158.44,172.79,155.5z"/>
		<path d="M207.61,161.49c0.31-5.25,1.63-9.62,3.94-13.09c2.31-3.47,5.25-6.25,8.83-8.36c3.57-2.1,7.59-3.6,12.06-4.49
			c4.47-0.89,8.96-1.34,13.48-1.34c4.1,0,8.25,0.29,12.46,0.87c4.2,0.58,8.04,1.71,11.51,3.39c3.47,1.68,6.31,4.02,8.51,7.02
			c2.21,3,3.31,6.96,3.31,11.9v42.41c0,3.68,0.21,7.2,0.63,10.56c0.42,3.37,1.15,5.89,2.21,7.57h-22.7
			c-0.42-1.26-0.76-2.55-1.02-3.86c-0.26-1.31-0.45-2.65-0.55-4.02c-3.57,3.68-7.78,6.25-12.61,7.73
			c-4.84,1.47-9.77,2.21-14.82,2.21c-3.89,0-7.52-0.47-10.88-1.42c-3.37-0.95-6.31-2.42-8.83-4.41c-2.52-1.99-4.49-4.52-5.91-7.57
			c-1.42-3.05-2.13-6.67-2.13-10.88c0-4.62,0.81-8.43,2.44-11.43c1.63-2.99,3.73-5.38,6.31-7.17c2.57-1.79,5.52-3.13,8.83-4.02
			c3.31-0.89,6.65-1.6,10.01-2.13c3.36-0.52,6.67-0.95,9.93-1.26c3.26-0.31,6.15-0.79,8.67-1.42c2.52-0.63,4.52-1.55,5.99-2.76
			c1.47-1.21,2.15-2.97,2.05-5.28c0-2.42-0.39-4.34-1.18-5.75c-0.79-1.42-1.84-2.52-3.15-3.31c-1.32-0.79-2.84-1.31-4.57-1.58
			c-1.73-0.26-3.6-0.39-5.6-0.39c-4.41,0-7.88,0.95-10.41,2.84c-2.52,1.89-4,5.05-4.41,9.46H207.61z M259.33,178.05
			c-0.95,0.84-2.13,1.5-3.55,1.97c-1.42,0.47-2.94,0.87-4.57,1.18c-1.63,0.31-3.34,0.58-5.12,0.79c-1.79,0.21-3.57,0.47-5.36,0.79
			c-1.68,0.32-3.34,0.74-4.97,1.26c-1.63,0.53-3.05,1.24-4.26,2.13c-1.21,0.89-2.18,2.03-2.92,3.39c-0.74,1.37-1.1,3.1-1.1,5.2
			c0,2,0.37,3.68,1.1,5.05c0.73,1.37,1.73,2.44,3,3.23c1.26,0.79,2.73,1.34,4.41,1.66c1.68,0.32,3.41,0.47,5.2,0.47
			c4.41,0,7.83-0.73,10.25-2.21c2.42-1.47,4.2-3.23,5.36-5.28c1.16-2.05,1.86-4.12,2.13-6.23c0.26-2.1,0.39-3.78,0.39-5.05V178.05z"
			/>
		<path d="M312.98,105.36v112.57h-22.39V105.36H312.98z"/>
		<path d="M23.57,105.36v112.57H1.18V105.36H23.57z"/>
	</g>
</g>
</svg>
