<?xml version="1.0" encoding="utf-8"?>
<!-- Generator: Adobe Illustrator 24.0.0, SVG Export Plug-In . SVG Version: 6.00 Build 0)  -->
<svg version="1.1" baseProfile="basic" id="Layer_1"
	 xmlns="http://www.w3.org/2000/svg" xmlns:xlink="http://www.w3.org/1999/xlink" x="0px" y="0px" viewBox="0 0 288 288"
	 xml:space="preserve">
<style type="text/css">
	.st0{fill:#FFFFFF;}
</style>
<g>
	<path class="st0" d="M167.79,136.86h71.98c-0.96,66.42-55.06,120.21-121.6,120.64l0-71.97C145.03,185.1,166.85,163.6,167.79,136.86
		z"/>
	<path class="st0" d="M126.99,93.13l0-55.64c51.93,0.69,94.22,42.02,96.43,93.56l-55.74,0C165.59,110.2,148.24,93.79,126.99,93.13z"
		/>
	<path class="st0" d="M100.86,102.27c-5.41,5.41-8.64,12.41-9.27,19.95H48.73c0.67-18.98,8.37-36.72,21.88-50.21
		c13.59-13.58,31.46-21.29,50.57-21.88v42.84C113.5,93.53,106.35,96.77,100.86,102.27z"/>
	<path class="st0" d="M112.35,145.72v31.52c-27.65-0.23-50.27-21.9-52.12-49.21h31.7C93.61,137.93,102.1,145.52,112.35,145.72z"/>
	<path class="st0" d="M127.73,136.86h15.99c-0.67,6.33-3.47,12.2-8.05,16.76c-4.75,4.72-10.89,7.54-17.5,8.07v-15.86
		c2.37-0.44,4.63-1.63,6.38-3.37C126.13,140.89,127.2,138.96,127.73,136.86z"/>
	<path class="st0" d="M119.33,124.38c-0.45-0.01-0.89,0.03-1.34,0.09v-11.3c0.44-0.03,0.89-0.06,1.34-0.06
		c5.33,0,10.37,2.09,14.13,5.87c3.27,3.28,5.26,7.51,5.73,12.07h-11.41c-0.37-1.53-1.17-2.97-2.31-4.11
		C123.84,125.29,121.65,124.38,119.33,124.38z"/>
</g>
</svg>
